<mxfile host="app.diagrams.net" modified="2024-04-27T13:45:11.284Z" agent="Mozilla/5.0 (Windows NT 10.0; Win64; x64) AppleWebKit/537.36 (KHTML, like Gecko) Chrome/124.0.0.0 Safari/537.36" etag="JFSh9Y5boY4IakDGk-Hd" version="24.3.1" type="device">
  <diagram name="Página-1" id="Eq5kTXzSdocYtyho2q14">
    <mxGraphModel dx="819" dy="441" grid="1" gridSize="10" guides="1" tooltips="1" connect="1" arrows="1" fold="1" page="1" pageScale="1" pageWidth="827" pageHeight="1169" math="0" shadow="0">
      <root>
        <mxCell id="0" />
        <mxCell id="1" parent="0" />
        <mxCell id="qreE5Q_pIXYyZC-7umUG-2" value="" style="ellipse;whiteSpace=wrap;html=1;aspect=fixed;" parent="1" vertex="1">
          <mxGeometry x="132.5" y="120" width="20" height="20" as="geometry" />
        </mxCell>
        <mxCell id="qreE5Q_pIXYyZC-7umUG-10" value="Cadastro" style="rounded=1;whiteSpace=wrap;html=1;" parent="1" vertex="1">
          <mxGeometry x="107.5" y="150" width="70" height="20" as="geometry" />
        </mxCell>
        <mxCell id="qreE5Q_pIXYyZC-7umUG-11" value="" style="endArrow=none;html=1;rounded=0;" parent="1" edge="1">
          <mxGeometry width="50" height="50" relative="1" as="geometry">
            <mxPoint x="102.5" y="210" as="sourcePoint" />
            <mxPoint x="182.5" y="210" as="targetPoint" />
          </mxGeometry>
        </mxCell>
        <mxCell id="qreE5Q_pIXYyZC-7umUG-13" value="insere dados" style="ellipse;whiteSpace=wrap;html=1;" parent="1" vertex="1">
          <mxGeometry x="100" y="220" width="70" height="50" as="geometry" />
        </mxCell>
        <mxCell id="qreE5Q_pIXYyZC-7umUG-14" value="" style="endArrow=none;html=1;rounded=0;entryX=0.5;entryY=1;entryDx=0;entryDy=0;" parent="1" target="qreE5Q_pIXYyZC-7umUG-10" edge="1">
          <mxGeometry width="50" height="50" relative="1" as="geometry">
            <mxPoint x="142.5" y="210" as="sourcePoint" />
            <mxPoint x="152.5" y="190" as="targetPoint" />
          </mxGeometry>
        </mxCell>
        <mxCell id="qreE5Q_pIXYyZC-7umUG-15" value="email" style="ellipse;whiteSpace=wrap;html=1;" parent="1" vertex="1">
          <mxGeometry x="242.5" y="195" width="40" height="30" as="geometry" />
        </mxCell>
        <mxCell id="qreE5Q_pIXYyZC-7umUG-23" value="Senha" style="ellipse;whiteSpace=wrap;html=1;" parent="1" vertex="1">
          <mxGeometry x="242.5" y="250" width="40" height="30" as="geometry" />
        </mxCell>
        <mxCell id="qreE5Q_pIXYyZC-7umUG-26" value="" style="endArrow=none;html=1;rounded=0;exitX=1;exitY=0.5;exitDx=0;exitDy=0;" parent="1" source="qreE5Q_pIXYyZC-7umUG-13" target="qreE5Q_pIXYyZC-7umUG-15" edge="1">
          <mxGeometry width="50" height="50" relative="1" as="geometry">
            <mxPoint x="352.5" y="260" as="sourcePoint" />
            <mxPoint x="402.5" y="210" as="targetPoint" />
          </mxGeometry>
        </mxCell>
        <mxCell id="qreE5Q_pIXYyZC-7umUG-27" value="" style="endArrow=none;html=1;rounded=0;exitX=0.949;exitY=0.755;exitDx=0;exitDy=0;exitPerimeter=0;entryX=0;entryY=0.5;entryDx=0;entryDy=0;" parent="1" source="qreE5Q_pIXYyZC-7umUG-13" target="qreE5Q_pIXYyZC-7umUG-23" edge="1">
          <mxGeometry width="50" height="50" relative="1" as="geometry">
            <mxPoint x="190.5" y="243" as="sourcePoint" />
            <mxPoint x="252.5" y="252" as="targetPoint" />
          </mxGeometry>
        </mxCell>
        <mxCell id="qreE5Q_pIXYyZC-7umUG-31" value="" style="endArrow=none;html=1;rounded=0;" parent="1" source="qreE5Q_pIXYyZC-7umUG-15" edge="1">
          <mxGeometry width="50" height="50" relative="1" as="geometry">
            <mxPoint x="352.5" y="260" as="sourcePoint" />
            <mxPoint x="332.5" y="240" as="targetPoint" />
          </mxGeometry>
        </mxCell>
        <mxCell id="qreE5Q_pIXYyZC-7umUG-32" value="" style="endArrow=none;html=1;rounded=0;exitX=1;exitY=0.5;exitDx=0;exitDy=0;" parent="1" source="qreE5Q_pIXYyZC-7umUG-23" edge="1" target="qreE5Q_pIXYyZC-7umUG-33">
          <mxGeometry width="50" height="50" relative="1" as="geometry">
            <mxPoint x="352.5" y="260" as="sourcePoint" />
            <mxPoint x="332.5" y="260" as="targetPoint" />
          </mxGeometry>
        </mxCell>
        <mxCell id="qreE5Q_pIXYyZC-7umUG-33" value="Verificação de dados" style="ellipse;whiteSpace=wrap;html=1;" parent="1" vertex="1">
          <mxGeometry x="332.5" y="215" width="70" height="50" as="geometry" />
        </mxCell>
        <mxCell id="qreE5Q_pIXYyZC-7umUG-35" value="" style="rhombus;whiteSpace=wrap;html=1;" parent="1" vertex="1">
          <mxGeometry x="475" y="225" width="30" height="30" as="geometry" />
        </mxCell>
        <mxCell id="qreE5Q_pIXYyZC-7umUG-36" value="" style="endArrow=none;html=1;rounded=0;entryX=0;entryY=0.5;entryDx=0;entryDy=0;exitX=1;exitY=0.5;exitDx=0;exitDy=0;" parent="1" source="qreE5Q_pIXYyZC-7umUG-33" target="qreE5Q_pIXYyZC-7umUG-35" edge="1">
          <mxGeometry width="50" height="50" relative="1" as="geometry">
            <mxPoint x="352.5" y="260" as="sourcePoint" />
            <mxPoint x="402.5" y="210" as="targetPoint" />
          </mxGeometry>
        </mxCell>
        <mxCell id="qreE5Q_pIXYyZC-7umUG-39" value="continua na tela de cadastro" style="ellipse;whiteSpace=wrap;html=1;" parent="1" vertex="1">
          <mxGeometry x="590" y="135" width="100" height="50" as="geometry" />
        </mxCell>
        <mxCell id="qreE5Q_pIXYyZC-7umUG-41" value="&lt;font style=&quot;font-size: 9px;&quot;&gt;email&lt;/font&gt;" style="text;html=1;align=center;verticalAlign=middle;resizable=0;points=[];autosize=1;strokeColor=none;fillColor=none;" parent="1" vertex="1">
          <mxGeometry x="530" y="135" width="50" height="30" as="geometry" />
        </mxCell>
        <mxCell id="qreE5Q_pIXYyZC-7umUG-42" value="&lt;font style=&quot;font-size: 9px;&quot;&gt;Incorreto&lt;/font&gt;" style="text;html=1;align=center;verticalAlign=middle;resizable=0;points=[];autosize=1;strokeColor=none;fillColor=none;" parent="1" vertex="1">
          <mxGeometry x="525" y="150" width="60" height="30" as="geometry" />
        </mxCell>
        <mxCell id="qreE5Q_pIXYyZC-7umUG-56" value="cadastro bem sucedido&amp;nbsp;" style="ellipse;whiteSpace=wrap;html=1;" parent="1" vertex="1">
          <mxGeometry x="600" y="300" width="80" height="52" as="geometry" />
        </mxCell>
        <mxCell id="qreE5Q_pIXYyZC-7umUG-58" value="" style="endArrow=none;html=1;rounded=0;" parent="1" edge="1">
          <mxGeometry width="50" height="50" relative="1" as="geometry">
            <mxPoint x="730" y="410" as="sourcePoint" />
            <mxPoint x="730" y="120" as="targetPoint" />
          </mxGeometry>
        </mxCell>
        <mxCell id="qreE5Q_pIXYyZC-7umUG-59" value="" style="endArrow=none;html=1;rounded=0;" parent="1" edge="1">
          <mxGeometry width="50" height="50" relative="1" as="geometry">
            <mxPoint x="730" y="230" as="sourcePoint" />
            <mxPoint x="770" y="230" as="targetPoint" />
          </mxGeometry>
        </mxCell>
        <mxCell id="qreE5Q_pIXYyZC-7umUG-60" value="" style="ellipse;whiteSpace=wrap;html=1;aspect=fixed;" parent="1" vertex="1">
          <mxGeometry x="770" y="220" width="20" height="20" as="geometry" />
        </mxCell>
        <mxCell id="qreE5Q_pIXYyZC-7umUG-61" value="" style="endArrow=classic;html=1;rounded=0;exitX=1.004;exitY=0.253;exitDx=0;exitDy=0;exitPerimeter=0;" parent="1" source="qreE5Q_pIXYyZC-7umUG-56" edge="1">
          <mxGeometry width="50" height="50" relative="1" as="geometry">
            <mxPoint x="400" y="230" as="sourcePoint" />
            <mxPoint x="730" y="300" as="targetPoint" />
          </mxGeometry>
        </mxCell>
        <mxCell id="BsNf4n4HZqqyDwe7ETjx-1" value="" style="endArrow=none;html=1;rounded=0;entryX=0.5;entryY=1;entryDx=0;entryDy=0;" edge="1" parent="1" target="qreE5Q_pIXYyZC-7umUG-35">
          <mxGeometry width="50" height="50" relative="1" as="geometry">
            <mxPoint x="500" y="320" as="sourcePoint" />
            <mxPoint x="460" y="260" as="targetPoint" />
          </mxGeometry>
        </mxCell>
        <mxCell id="BsNf4n4HZqqyDwe7ETjx-3" value="" style="endArrow=none;html=1;rounded=0;entryX=0.5;entryY=0;entryDx=0;entryDy=0;" edge="1" parent="1" target="qreE5Q_pIXYyZC-7umUG-35">
          <mxGeometry width="50" height="50" relative="1" as="geometry">
            <mxPoint x="500" y="160" as="sourcePoint" />
            <mxPoint x="495" y="275" as="targetPoint" />
          </mxGeometry>
        </mxCell>
        <mxCell id="BsNf4n4HZqqyDwe7ETjx-4" value="" style="endArrow=none;html=1;rounded=0;entryX=0;entryY=0.5;entryDx=0;entryDy=0;" edge="1" parent="1" target="qreE5Q_pIXYyZC-7umUG-39">
          <mxGeometry width="50" height="50" relative="1" as="geometry">
            <mxPoint x="500" y="160" as="sourcePoint" />
            <mxPoint x="470" y="180" as="targetPoint" />
          </mxGeometry>
        </mxCell>
        <mxCell id="BsNf4n4HZqqyDwe7ETjx-5" value="" style="endArrow=none;html=1;rounded=0;entryX=0;entryY=0.5;entryDx=0;entryDy=0;" edge="1" parent="1" target="qreE5Q_pIXYyZC-7umUG-56">
          <mxGeometry width="50" height="50" relative="1" as="geometry">
            <mxPoint x="500" y="320" as="sourcePoint" />
            <mxPoint x="480" y="240" as="targetPoint" />
          </mxGeometry>
        </mxCell>
        <mxCell id="BsNf4n4HZqqyDwe7ETjx-6" value="&lt;font style=&quot;font-size: 9px;&quot;&gt;email&lt;/font&gt;" style="text;html=1;align=center;verticalAlign=middle;resizable=0;points=[];autosize=1;strokeColor=none;fillColor=none;" vertex="1" parent="1">
          <mxGeometry x="525" y="300" width="50" height="30" as="geometry" />
        </mxCell>
        <mxCell id="BsNf4n4HZqqyDwe7ETjx-7" value="&lt;font style=&quot;font-size: 9px;&quot;&gt;correto&lt;/font&gt;" style="text;html=1;align=center;verticalAlign=middle;resizable=0;points=[];autosize=1;strokeColor=none;fillColor=none;" vertex="1" parent="1">
          <mxGeometry x="525" y="311" width="50" height="30" as="geometry" />
        </mxCell>
      </root>
    </mxGraphModel>
  </diagram>
</mxfile>
